<?xml version="1.0" encoding="UTF-8"?>
<svg enable-background="new 0 0 1175 362" version="1.1" viewBox="0 0 1175 362" xml:space="preserve" xmlns="http://www.w3.org/2000/svg">
<path d="m391.91 197.16c-7.444-21.786-14.773-43.199-22.101-64.612-0.332-0.016113-0.664-0.032211-0.996-0.048309-7.9009 43.754-15.802 87.507-23.734 131.43h-27.079c12.974-69.515 25.887-138.7 38.744-207.6 0.63577-0.28439 0.78332-0.39841 0.94064-0.41392 11.878-1.1717 11.882-1.1722 15.506 9.9407 14.876 45.608 29.749 91.217 44.627 136.82 0.3501 1.0731 0.75845 2.1272 1.4922 4.1734 0.81659-2.3312 1.3741-3.7441 1.8102-5.1935 14.012-46.577 28.091-93.134 41.893-139.77 1.4255-4.8173 3.3022-7.1606 8.4628-6.2464 1.9185 0.33988 3.9477 0.054959 6.4385 0.054959 14.041 69.4 28.033 138.56 42.107 208.12h-27.069c-7.9251-42.873-15.871-85.86-23.818-128.85-0.4714-0.11757-0.94284-0.23512-1.4143-0.35268-0.82486 1.7188-1.8476 3.3716-2.4456 5.166-13.64 40.929-27.25 81.867-40.795 122.83-0.90088 2.7242-1.6562 4.5588-5.2661 4.564-3.5102 0.005005-4.0968-1.9678-4.9194-4.3838-7.4089-21.76-14.843-43.511-22.385-65.637z" fill="#FCFCFC"/>
<path d="m1139.9 195.92c-16.754 31.16-39.548 55.767-72.175 72.333-3.7321-7.7592-7.3474-14.982-10.564-22.378-0.35669-0.81996 1.2764-2.9962 2.4697-3.9179 6.5751-5.0786 13.735-9.4789 19.889-15.008 15.761-14.163 22.162-33.002 24.142-53.367 1.1221-11.534 1.9039-23.399 0.479-34.821-2.9557-23.693-17.332-36.988-41.2-38.644-25.944-1.7995-46.934 7.4385-60.757 30.453-1.7955 2.9893-3.7488 5.9233-5.9535 8.6175-3.0071 3.6749-5.9973 3.8261-9.1703 0.20934-2.1581-2.4599-4.2236-5.3429-5.243-8.3994-3.9968-11.984-7.6321-24.092-11.181-36.218-0.36542-1.2483 0.29132-3.3542 1.2305-4.344 21.457-22.612 46.216-39.167 78.31-41.903 36.428-3.1061 68.036 6.3113 89.982 37.309 18.746 26.479 20.051 55.792 10.142 85.905-2.693 8.1839-6.786 15.907-10.399 24.173z" fill="#F27F45"/>
<path d="m955.24 257.8c0.73572 2.0837 1.3361 3.7885 2.2337 6.3374-10.391 0-20.266 0.098725-30.132-0.1658-0.90167-0.0242-2.0848-2.2596-2.5552-3.6632-4.0228-12.003-8.0064-24.022-11.773-36.107-0.94214-3.0232-2.2836-4.1241-5.5596-4.1022-22.997 0.15399-45.995 0.15552-68.992-9.15e-4 -3.3127-0.022538-4.5682 1.1844-5.558 4.1534-4.0036 12.008-8.3785 23.893-12.384 35.9-0.99579 2.9852-2.2991 4.2017-5.5933 4.1118-8.9742-0.24475-17.959-0.084137-27.666-0.084137 0.81842-2.2078 1.398-3.8842 2.0557-5.5294 26.836-67.129 53.692-134.25 80.477-201.4 1.1406-2.8594 2.2029-4.5958 5.882-4.6132 3.764-0.017833 4.3215 2.1872 5.2565 4.7104 24.714 66.695 49.445 133.38 74.309 200.45m-111.28-64.364c-0.56091 1.712-1.1218 3.4241-1.7444 5.3246h61.157c-9.7334-30.214-19.303-59.919-29.313-90.994-10.331 29.381-20.096 57.153-30.1 85.67z" fill="#FCFCFC"/>
<path d="m686.09 183v-127.01h128.42v25.253h-99.594v57.848h72.497v24.362h-72.819v100.51h-28.508v-80.965z" fill="#FBFBFB"/>
<path d="m526.47 120.53c-1.1111-2.986-2.0607-5.6069-3.2181-8.8013 8.9415 0 17.245-0.16928 25.526 0.18468 1.2253 0.052376 2.8306 2.3913 3.4418 3.986 12.037 31.403 23.95 62.854 35.898 94.292 2.2847 6.0117 4.6102 12.008 7.3143 19.045 7.0658-20.678 13.745-40.198 20.406-59.725 6.0734-17.806 12.198-35.594 18.119-53.451 1.0359-3.1243 2.2644-4.5888 5.8647-4.4295 7.464 0.33023 14.953 0.099648 23.209 0.099648-0.68738 2.0916-1.1801 3.7313-1.7614 5.3391-19.982 55.272-40.457 110.37-59.716 165.9-7.3628 21.227-21.911 32.677-42.318 38.339-6.3057 1.7495-12.979 2.1743-19.926 3.2757v-24.628c2.5842-0.27036 5.2772-0.23004 7.7913-0.88077 5.6078-1.4516 11.451-2.5686 16.618-5.036 13.619-6.5032 18.114-14.998 15.671-29.89-1.2292-7.4962-3.3147-14.98-6.0215-22.085-15.411-40.453-31.126-80.79-46.9-121.53z" fill="#FCFCFC"/>
<path d="m227.61 301.54c-0.75439-1.6758-1.3605-3.2315-1.3626-4.788-0.052917-39.118 0.020142-78.237-0.13364-117.36-0.016465-4.1877 1.1892-5.6241 5.3295-5.2547 3.6333 0.32413 7.3232 0.18597 10.979 0.033005 3.3349-0.13956 6.1868 0.035202 5.3692 5.6522 10.396-8.6262 21.592-8.1216 32.89-5.7954 13.96 2.874 23.053 11.442 27.208 25.008 3.574 11.67 4.106 23.615 1.5844 35.552-5.3275 25.219-30.611 39.021-56.553 31.037-1.4152-0.43555-2.8013-0.96576-5.2024-1.7998 0 2.7439 3.1e-5 4.9497 0 7.1554-1.37e-4 8.8225-0.11189 17.647 0.058151 26.466 0.062195 3.2259-0.94559 4.4784-4.2608 4.3292-5.1502-0.23187-10.317-0.098419-15.906-0.23947m20.105-85.038c5.03e-4 8.1484-0.14639 16.302 0.11377 24.442 0.05893 1.8435 1.0259 4.3757 2.4332 5.3461 12.375 8.533 33.64 0.80162 36.642-13.849 1.5333-7.4821 1.6378-15.639 0.4975-23.207-2.3002-15.264-21.402-23.6-35.034-16.074-3.1783 1.7545-5.0146 3.9093-4.7322 7.8812 0.34111 4.7982 0.079651 9.6393 0.0793 15.461z" fill="#EF7E45"/>
<path d="m32.665 174.73c6.8343-0.28033 13.304-0.28033 20.014-0.28033 0.36673 1.4686 0.71119 2.8481 1.0493 4.2021 0.35831 0.066025 0.75229 0.27428 0.94861 0.15556 25.639-15.501 55.482-2.2597 60.45 27.342 1.4103 8.4027 1.5708 17.355 0.39166 25.787-3.2192 23.022-20.569 36.388-44.933 35.382-5.5547-0.22928-11.061-1.6287-17.17-2.58v36.633h-21.103c-0.11432-1.2953-0.29835-2.4103-0.29877-3.5253-0.015047-39.792-0.015438-79.584-6.22e-4 -119.38 4.31e-4 -1.1535 0.18714-2.3069 0.65155-3.7407m58.585 27.757c-6.0554-10.86-23.728-15.526-33.966-8.7044-1.7972 1.1976-3.7639 3.7443-3.8093 5.7104-0.3257 14.127-0.2485 28.266-0.069019 42.398 0.018993 1.4957 1.1502 3.524 2.3991 4.3728 12.704 8.6343 33.615 0.76395 37.091-14.076 2.272-9.6999 2.0992-19.467-1.6462-29.701z" fill="#F17F45"/>
<path d="m188.87 234c-0.003479-8.498 0.086029-16.497-0.034775-24.494-0.13467-8.913-4.5041-15.112-12.147-17.608-8.0237-2.62-19.291 0.40906-23.639 6.6922-1.0178 1.471-1.2425 3.7262-1.2514 5.6234-0.088059 18.828-0.1445 37.658 0.021072 56.485 0.033539 3.8153-0.87535 5.4117-4.9874 5.1534-5.4304-0.3411-10.898-0.083954-16.696-0.083954-0.10117-2.2284-0.23836-3.8478-0.23886-5.4673-0.012024-38.324 0.053848-76.648-0.10452-114.97-0.016311-3.9443 1.1506-5.6199 4.9986-6.2766 5.364-0.91536 10.637-2.3652 16.809-3.7841v44.482c8.9515-6.6704 18.093-7.5494 27.545-6.9 16.672 1.1455 29.189 11.249 30.236 27.802 1.352 21.376 0.3295 42.901 0.3295 64.74h-20.841c0-10.378 0-20.636-1.98e-4 -31.394z" fill="#F07E45"/>
<path d="m1004.3 218.67c10.052 15.035 23.562 25.688 38.449 34.879 2.4313 1.501 4.2872 3.934 6.4092 5.9363-0.35132 0.75534-0.70264 1.5107-1.0538 2.2661-7.4884-0.76254-15.109-0.88464-22.443-2.3969-34.298-7.0724-58.713-33.618-65.204-70.699-3.5963-20.546-1.6655-40.832 3.8931-60.838 0.17059-0.61397 0.53088-1.1753 1.0875-2.3751 6.6923 8.8056 12.748 17.553 19.63 25.593 5.9034 6.8968 8.6541 13.65 7.4721 23.249-1.95 15.835 2.8754 30.648 11.759 44.386z" fill="#FCFCFC"/>
<path d="m1079.3 283.74c5.4513-18.314 23.529-29.157 40.775-24.818 14.023 3.528 21.423 16.578 17.262 30.444-5.0273 16.753-24.739 27.373-41.455 22.336-12.183-3.6718-18.208-13.623-16.582-27.962z" fill="#F17F45"/>
<path d="m851.15 332.42c-1.2045 0.97372-2.3797 2.115-3.5003 2.0637-6.2795-0.28744-12.129-1.7102-16.601-6.7533-0.88049-0.99283-2.8512-1.4545-4.3067-1.4298-8.2522 0.14008-13.59-3.9883-16.478-11.326-3.1017-7.8821-3.1937-15.962 0.1095-23.84 3.2438-7.7357 9.2603-11.395 17.261-10.9 7.9851 0.49387 14.029 4.8504 16.031 12.702 2.8795 11.295 2.518 22.158-7.0836 31.032 2.663 4.3199 6.9938 4.5225 11.273 4.5259 2.6096 0.002045 4.3608 0.33606 3.2953 3.9243m-26.978-12.018c6.7623 0.30582 10.514-1.6997 12.636-7.3384 2.4829-6.5993 2.5156-13.385 0.13483-20.023-1.7794-4.9612-5.6719-7.1357-10.864-7.1588-5.0064-0.022308-8.1917 2.6667-9.7676 7.1019-2.4804 6.9812-2.6388 14.169 0.64856 20.859 1.2632 2.5706 4.2641 4.2874 7.2126 6.5598z" fill="#CACBCD"/>
<path d="m1032 297.38c-4.9971 0.55478-7.0292 2.9892-6.8424 7.7388 0.25452 6.4767 0.063476 12.971 0.063476 19.875h-5.9849c0-6.7707 0.023376-13.534-0.007507-20.297-0.023377-5.1167-1.8734-7.3407-5.9821-7.3228-3.9913 0.017334-6.7247 2.9999-6.7579 7.5343-0.048645 6.6303-0.012512 13.261-0.012512 20.271-1.9745 0.08725-3.5587 0.15726-5.5004 0.24307v-33.145c2.2494 1.1642 3.9072 2.0223 5.8701 3.0382 7.1232-4.1958 10.628-4.2013 17.348 0.45721 1.2861-0.74768 2.6161-1.6805 4.0699-2.3394 7.8521-3.5585 15.231 0.75449 15.627 9.3326 0.28369 6.1491 0.079956 12.321 0.072876 18.483-0.001221 1.1525-0.10144 2.3048-0.17249 3.8065h-5.7635c0-6.8124 0.024047-13.431-0.009156-20.05-0.019409-3.8559-1.2152-6.9119-6.0182-7.6253z" fill="#CBCDCF"/>
<path d="m695.65 299.61c0.13318 8.6337 0.13318 16.895 0.13318 25.576-1.3174 0.073547-2.8976 0.16177-5.2648 0.29394 0-7.0724 0.33899-13.838-0.18018-20.538-0.18677-2.4099-1.9167-5.6069-3.903-6.7008-1.7769-0.97861-5.201-0.14462-7.2765 1.0088-1.4008 0.77847-2.3344 3.4736-2.4153 5.3571-0.28467 6.6286-0.11066 13.277-0.11066 20.503-1.893 0.11517-3.6108 0.2197-5.7017 0.34692v-45.554c1.5629-0.080963 3.2736-0.16956 5.5915-0.28961v15.206c11.168-4.0615 15.033-3.089 19.127 4.7908z" fill="#CBCCCE"/>
<path d="m802.45 311.45c1.6921 4.5593 3.2345 8.7585 4.898 13.288-4.2073 1.413-7.385 1.348-8.0853-3.7677-0.5813-4.2468-3.0068-5.4072-6.9374-4.8774-1.962 0.26444-4.0205 0.27112-5.9801-0.002075-3.8434-0.53577-5.984 0.91394-6.5731 4.7659-0.70923 4.6372-3.6452 5.3814-8.3618 3.9936 5.9518-14.886 11.879-29.71 17.806-44.534 0.54688-0.050811 1.0938-0.10162 1.6406-0.15246 3.8144 10.309 7.6288 20.617 11.593 31.286m-13.61-16.496c-1.8793 5.38-3.7587 10.76-5.6703 16.233h12.642c-1.7664-5.5813-3.3279-10.647-5.0203-15.668-0.1795-0.53278-1.1268-0.80682-1.9511-0.56424z" fill="#CBCCCE"/>
<path d="m701.01 314.8c-1.4688-7.532-0.46161-14.017 5.2986-19.063 4.6626-4.0844 12.381-4.6362 17.775-1.4114 5.1279 3.0659 7.1203 8.5222 5.4061 15.541h-22.135c-0.83984 9.9214 6.5158 13.564 17.602 8.8536 0.74072 1.1046 1.5217 2.2691 3.2207 4.8026-4.9874 0.97253-9.0508 2.376-13.13 2.4255-7.1716 0.087158-11.645-4.1225-14.037-11.149m13.045-17.257c-3.7991 1.0304-6.4744 3.0743-6.8722 7.4831h16.823c-0.90259-5.8784-2.6402-7.2521-9.9506-7.4831z" fill="#C7C9CB"/>
<path d="m996.48 304.45c-0.034607 1.86-0.11932 3.3215-0.23865 5.3798h-22.945c-0.013305 10.372 6.6725 13.531 18.051 8.8773 0.6878 1.1946 1.3977 2.4275 2.0891 3.6282-6.7479 4.959-15.469 5.082-21.086 0.49106-5.8392-4.772-7.5939-14.658-3.903-21.989 3.3597-6.6729 10.089-9.8 17.598-8.0895 6.0289 1.3733 9.5158 5.1539 10.435 11.702m-12.033 0.99338h5.7803c-0.79163-5.7073-3.5134-8.1834-8.1619-8.1407-4.6306 0.042572-7.706 2.8439-8.4789 8.1413 3.3425 0 6.6205 0 10.861-6.1e-4z" fill="#C8C9CB"/>
<path d="m869.54 319c7.3566 2.4576 11.693 1.5344 13.473-2.6359 1.8303-4.2866-0.59357-7.6214-7.2239-11.184-3.4164-1.8357-7.3002-3.9146-9.3414-6.9727-4.731-7.0877-0.42364-16.357 7.991-17.543 4.1794-0.58872 8.5844 0.42364 13.565 0.75705-1.0048 2.9946-1.5154 4.5165-2.0392 6.0778-2.8403-0.64911-5.517-1.9912-7.9131-1.6027-2.3854 0.38687-5.7224 2.0867-6.3776 3.9903-0.68805 1.9988 0.6427 5.5769 2.3055 7.2775 2.0982 2.1458 5.4353 3.0716 8.2207 4.556 5.952 3.1722 8.6297 8.3177 7.4971 14.351-1.0506 5.5961-6.0234 9.8666-12.68 9.9828-3.9592 0.069061-7.9384-1.0039-11.909-1.5634-0.22528-0.7554-0.45062-1.5108-0.6759-2.2662 1.5805-1.1266 3.1611-2.2532 5.1068-3.2249z" fill="#C9CACC"/>
<path d="m763.1 304.07c-1.9234 0.091797-3.3698 0.1835-5.2745 0.30426v20.771h-5.9498v-43.732h26.859v5.1804h-20.504v12.102h14.867v5.3743c-3.3078 0-6.4142 0-9.9976 1.53e-4z" fill="#CBCCCE"/>
<path d="m894.89 304.22c-1.4459-3.7488-2.762-7.132-4.1203-10.624 3.9735-1.4241 6.1505-0.66605 7.4506 3.3202 2.1064 6.4586 4.7584 12.739 7.7779 20.664 2.6271-7.6302 4.7914-13.93 6.9658-20.227 1.5812-4.579 1.5871-4.5769 7.2881-3.9267-1.0955 3.1585-2.1263 6.2229-3.2194 9.265-3.1504 8.7666-6.2935 17.536-9.5026 26.281-2.3146 6.3079-5.9791 8.8035-13.23 8.8943-0.14337-1.3452-0.29132-2.7329-0.46039-4.3191 0.79822-0.32013 1.3585-0.60297 1.9509-0.77362 6.7634-1.9478 8.1411-4.3178 5.827-10.946-2.0276-5.8077-4.3859-11.5-6.7278-17.609z" fill="#CACBCD"/>
<path d="m647.18 286.96h-13.822c-0.13727-2.1646-0.23566-3.7154-0.35626-5.6173h34.685c0.11481 1.4806 0.23444 3.0236 0.40631 5.2394h-14.766c0 9.3762-6.1e-5 18.134 6.1e-5 26.892 6.1e-5 2.8311-0.17444 5.6762 0.048645 8.4897 0.23846 3.0079-1.0202 3.9325-4.074 2.8065-0.2912-11.298-0.20569-21.999-0.36462-32.695-0.025391-1.7132-1.1444-3.4102-1.7579-5.1147z" fill="#C7C8CA"/>
<path d="m932.51 320.83c4.1684-3.157 4.2874-5.6294 0.53357-8.2014-1.9012-1.3027-4.1252-2.1243-6.1478-3.262-4.8468-2.7265-6.9803-6.8-5.5275-11.007 1.6885-4.8899 5.8204-6.1709 10.383-5.9844 2.7375 0.11185 5.4408 1.059 8.6655 1.7372-0.47583 2.0454-0.82861 3.5618-1.227 5.2742-2.6157-0.7208-4.9295-1.8153-7.2513-1.8328-1.4745-0.011078-3.788 1.3004-4.2029 2.5318-0.39258 1.1655 0.81128 3.5082 2.0085 4.4281 2.0654 1.5868 4.7207 2.3806 7.0369 3.6715 4.0495 2.257 6.0041 5.7114 5.1204 10.368-0.91211 4.8058-4.4193 7.1428-8.875 7.2872-3.9627 0.12845-7.961-0.83981-12.488-1.3903 0.97113-2.7363 1.5103-4.2555 2.0353-5.7348 3.3315 0.76758 6.4433 1.4846 9.9366 2.115z" fill="#C9CACC"/>
<path d="m954.12 306.02c0 2.3126-0.005798 4.1458 9.77e-4 5.979 0.031006 8.3542 1.618 9.7528 10.093 8.4902 0.31152 1.3269 0.63086 2.6872 0.87836 3.7413-1.754 2.5995-10.904 2.5934-13.25-0.25043-1.8718-2.2689-3.2137-5.4174-3.6288-8.3405-0.60339-4.2479-0.09552-8.6457-0.19305-12.977-0.047364-2.1021 1.0488-4.9072-2.7435-5.2945-0.26324-0.026886-0.46985-3.7139-0.37109-3.7306 3.8398-0.64703 2.5294-3.8017 3.3814-6.0137 0.61145-1.5873 2.9642-2.5038 5.4401-4.414 0.25336 3.7517 0.42487 6.2912 0.58649 8.6848 1.9025 3.1983 9.1832-2.3549 8.5203 5.5587-2.9099 0.19662-5.5138 0.37259-8.7136 0.58881v7.9776z" fill="#C8CACC"/>
<path d="m647.18 287.44c0.60834 1.2336 1.7274 2.9305 1.7527 4.6437 0.15894 10.697 0.073425 21.397 0.048645 32.573-0.61285-0.95389-1.7004-2.378-1.7192-3.8161-0.14307-10.975-0.077576-21.953-0.082215-33.401z" fill="#DDDEE0"/>
</svg>
