<?xml version="1.0" encoding="UTF-8"?>
<svg enable-background="new 0 0 1175 362" version="1.1" viewBox="0 0 1175 362" xml:space="preserve" xmlns="http://www.w3.org/2000/svg">
<path d="m750 363h-749v-362h1175v362h-426m-100.4-37.626c2.7581 0.52695 4.0167-0.3977 3.7783-3.4056-0.22308-2.8135-0.048584-5.6585-0.048645-8.4897-1.22e-4 -8.7578-6.1e-5 -17.516-6.1e-5 -26.892h14.766c-0.17188-2.2159-0.2915-3.7588-0.40631-5.2394h-34.685c0.12061 1.9019 0.21899 3.4526 0.35626 5.6173 4.8892 0 9.3553 0 13.832 0.94183-6.1e-4 10.977-0.066101 21.955 0.076966 32.93 0.018738 1.438 1.1063 2.8622 2.3309 4.5376m-257.57-127.84c7.4265 21.754 14.86 43.505 22.269 65.264 0.8226 2.416 1.4092 4.3888 4.9194 4.3838 3.6099-0.005188 4.3653-1.8398 5.2661-4.564 13.545-40.96 27.156-81.898 40.795-122.83 0.59799-1.7944 1.6207-3.4472 2.4456-5.166 0.47144 0.11755 0.94287 0.23511 1.4143 0.35268 7.9463 42.987 15.893 85.974 23.818 128.85h27.069c-14.073-69.562-28.066-138.72-42.107-208.12-2.4908 0-4.52 0.28492-6.4385-0.054959-5.1606-0.91421-7.0373 1.4291-8.4628 6.2464-13.802 46.639-27.881 93.197-41.893 139.77-0.43604 1.4494-0.99359 2.8623-1.8102 5.1935-0.73376-2.0462-1.1421-3.1003-1.4922-4.1734-14.879-45.607-29.752-91.216-44.627-136.82-3.6247-11.113-3.6281-11.112-15.506-9.9407-0.15732 0.015515-0.30487 0.12954-0.94064 0.41392-12.858 68.892-25.771 138.08-38.744 207.6h27.079c7.9317-43.924 15.833-87.678 23.734-131.43 0.332 0.016098 0.664 0.032196 0.996 0.048309 7.3287 21.413 14.657 42.826 22.217 64.986m748.05-1.9488c3.4506-7.9346 7.5436-15.658 10.237-23.842 9.9093-30.113 8.6046-59.426-10.142-85.905-21.945-30.997-53.553-40.415-89.982-37.309-32.094 2.7366-56.853 19.291-78.31 41.903-0.93921 0.98982-1.5959 3.0957-1.2305 4.344 3.5492 12.126 7.1846 24.234 11.181 36.218 1.0194 3.0565 3.0849 5.9395 5.243 8.3994 3.173 3.6168 6.1632 3.4655 9.1703-0.20934 2.2047-2.6941 4.158-5.6282 5.9535-8.6175 13.823-23.014 34.813-32.252 60.757-30.453 23.868 1.6555 38.244 14.95 41.2 38.644 1.4249 11.422 0.64307 23.287-0.479 34.821-1.9808 20.365-8.381 39.204-24.142 53.367-6.1537 5.5295-13.314 9.9298-19.889 15.008-1.1934 0.92178-2.8264 3.098-2.4697 3.9179 3.2168 7.3961 6.8322 14.619 10.564 22.378 32.627-16.567 55.421-41.174 72.338-72.665m-184.97 61.828c-24.729-66.689-49.46-133.38-74.174-200.07-0.935-2.5232-1.4925-4.7282-5.2565-4.7104-3.6791 0.01743-4.7415 1.7538-5.882 4.6132-26.784 67.149-53.641 134.27-80.477 201.4-0.65765 1.6452-1.2372 3.3216-2.0557 5.5294 9.7069 0 18.692-0.16061 27.666 0.084137 3.2942 0.089844 4.5975-1.1267 5.5933-4.1118 4.0055-12.008 8.3804-23.892 12.384-35.9 0.98987-2.969 2.2453-4.176 5.558-4.1534 22.997 0.15643 45.995 0.15491 68.992 9.15e-4 3.276-0.021942 4.6174 1.079 5.5596 4.1022 3.7665 12.085 7.7501 24.104 11.773 36.107 0.47046 1.4037 1.6536 3.639 2.5552 3.6632 9.866 0.26453 19.742 0.1658 30.132 0.1658-0.89764-2.549-1.498-4.2537-2.369-6.7163m-269.02-73.916v80.464h28.508v-100.51h72.819v-24.362h-72.497v-57.848h99.594v-25.253h-128.42v127.51m-159.46-62.61c15.612 40.376 31.327 80.713 46.738 121.17 2.7068 7.105 4.7923 14.589 6.0215 22.085 2.4421 14.893-2.0522 23.387-15.671 29.89-5.1674 2.4674-11.01 3.5845-16.618 5.036-2.5142 0.65073-5.2072 0.61041-7.7913 0.88077v24.628c6.947-1.1014 13.62-1.5262 19.926-3.2757 20.407-5.6619 34.955-17.112 42.318-38.339 19.259-55.523 39.734-110.62 59.716-165.9 0.5813-1.6077 1.074-3.2475 1.7614-5.3391-8.2567 0-15.745 0.23058-23.209-0.099648-3.6003-0.15929-4.8289 1.3051-5.8647 4.4295-5.9207 17.856-12.046 35.645-18.119 53.451-6.6604 19.527-13.34 39.047-20.406 59.725-2.704-7.0372-5.0295-13.033-7.3143-19.045-11.948-31.438-23.861-62.888-35.898-94.292-0.61121-1.5947-2.2164-3.9337-3.4418-3.986-8.281-0.35396-16.584-0.18468-25.526-0.18468 1.1573 3.1944 2.1069 5.8153 3.3796 9.1664m-298.58 180.77c5.1597 0.021393 10.326-0.11206 15.477 0.11981 3.3152 0.14926 4.323-1.1033 4.2608-4.3292-0.17004-8.8192-0.058288-17.644-0.058151-26.466 3.1e-5 -2.2058 0-4.4115 0-7.1554 2.4011 0.83404 3.7872 1.3643 5.2024 1.7998 25.941 7.9843 51.225-5.8179 56.553-31.037 2.5217-11.937 1.9897-23.882-1.5844-35.552-4.1548-13.566-13.248-22.134-27.208-25.008-11.299-2.3262-22.494-2.8308-32.89 5.7954 0.81755-5.617-2.0344-5.7917-5.3692-5.6522-3.6558 0.15297-7.3457 0.29112-10.979-0.033005-4.1403-0.36937-5.3459 1.067-5.3295 5.2547 0.15378 39.118 0.080719 78.237 0.13364 117.36 0.002106 1.5565 0.60818 3.1123 1.7923 4.9077m-195.74-126.65c-0.099853 1.1534-0.28656 2.3068-0.28699 3.4603-0.014816 39.792-0.014425 79.584 6.22e-4 119.38 4.19e-4 1.1151 0.18444 2.23 0.29877 3.5253h21.103v-36.633c6.1088 0.95123 11.615 2.3507 17.17 2.58 24.365 1.0056 41.714-12.36 44.933-35.382 1.1791-8.4326 1.0186-17.385-0.39166-25.787-4.9683-29.602-34.811-42.843-60.45-27.342-0.19632 0.11871-0.5903-0.089538-0.94861-0.15556-0.33812-1.3541-0.68258-2.7335-1.0493-4.2021-6.71 0-13.18 0-20.379 0.56068m156.57 59.495v30.894h20.841c0-21.839 1.0225-43.364-0.3295-64.74-1.047-16.554-13.564-26.657-30.236-27.802-9.4518-0.64941-18.593 0.22958-27.545 6.9v-44.482c-6.1724 1.4189-11.445 2.8688-16.809 3.7841-3.848 0.65662-5.0149 2.3322-4.9986 6.2766 0.15837 38.323 0.092499 76.647 0.10452 114.97 5.04e-4 1.6195 0.1377 3.239 0.23886 5.4673 5.7974 0 11.265-0.25714 16.696 0.083954 4.112 0.25827 5.0209-1.3381 4.9874-5.1534-0.16557-18.827-0.10913-37.657-0.021072-56.485 0.00888-1.8971 0.23361-4.1524 1.2514-5.6234 4.3474-6.2832 15.615-9.3123 23.639-6.6922 7.6425 2.4955 12.012 8.6948 12.147 17.608 0.1208 7.9962 0.031296 15.996 0.034973 24.994m815.19-16.138c-8.6853-13.435-13.511-28.248-11.561-44.083 1.182-9.5984-1.5687-16.352-7.4721-23.249-6.882-8.04-12.938-16.787-19.63-25.593-0.55658 1.1998-0.91687 1.7611-1.0875 2.3751-5.5587 20.006-7.4894 40.292-3.8931 60.838 6.4908 37.082 30.906 63.627 65.204 70.699 7.3337 1.5123 14.954 1.6344 22.443 2.3969 0.3512-0.75534 0.70251-1.5107 1.0538-2.2661-2.1219-2.0023-3.9779-4.4353-6.4092-5.9363-14.887-9.1906-28.396-19.843-38.647-35.182m75.119 65.797c-1.5316 13.92 4.4934 23.871 16.677 27.543 16.716 5.0378 36.427-5.5826 41.455-22.336 4.1611-13.866-3.2384-26.916-17.262-30.444-17.246-4.3387-35.323 6.5039-40.87 25.236m-227.99 47.876c1.0109-3.2052-0.74024-3.5392-3.3499-3.5413-4.2794-0.003357-8.6102-0.20596-11.273-4.5259 9.6016-8.8742 9.963-19.738 7.0836-31.032-2.0018-7.8519-8.046-12.208-16.031-12.702-8.0004-0.49478-14.017 3.1646-17.261 10.9-3.3032 7.8771-3.2112 15.957-0.1095 23.84 2.8875 7.3374 8.2256 11.466 16.478 11.326 1.4555-0.024719 3.4262 0.43695 4.3067 1.4298 4.4722 5.0431 10.322 6.4659 16.601 6.7533 1.1206 0.051269 2.2958-1.09 3.5549-2.4467m181.19-34.622c4.3735 0.68368 5.5693 3.7397 5.5887 7.5956 0.033203 6.6187 0.009156 13.238 0.009156 20.05h5.7635c0.071045-1.5017 0.17126-2.654 0.17249-3.8065 0.00708-6.1618 0.21082-12.334-0.072876-18.483-0.39587-8.5781-7.7747-12.891-15.627-9.3326-1.4539 0.6589-2.7838 1.5917-4.0699 2.3394-6.7203-4.6585-10.225-4.653-17.348-0.45721-1.9629-1.016-3.6207-1.874-5.8701-3.0382v33.145c1.9416-0.085816 3.5258-0.15582 5.5004-0.24307 0-7.0093-0.036133-13.64 0.012512-20.271 0.033203-4.5344 2.7667-7.517 6.7579-7.5343 4.1086-0.017853 5.9587 2.2061 5.9821 7.3228 0.030883 6.7629 0.007507 13.526 0.007507 20.297h5.9849c0-6.9038 0.19104-13.398-0.063476-19.875-0.18677-4.7496 1.8453-7.184 7.2718-7.709m-336.87 1.8266c-3.9606-7.5074-7.8261-8.4799-18.994-4.4183v-15.206c-2.3179 0.12006-4.0286 0.20865-5.5915 0.28961v45.554c2.0909-0.12723 3.8087-0.23175 5.7017-0.34692 0-7.2262-0.17401-13.875 0.11066-20.503 0.080872-1.8834 1.0145-4.5786 2.4153-5.3571 2.0754-1.1534 5.4996-1.9874 7.2765-1.0088 1.9862 1.0939 3.7162 4.2908 3.903 6.7008 0.51916 6.6996 0.18018 13.466 0.18018 20.538 2.3672-0.13217 3.9474-0.2204 5.2648-0.29394 0-8.6806 0-16.942-0.26642-25.948m106.79 11.847c-3.8144-10.309-7.6288-20.617-11.443-30.926-0.54688 0.050842-1.0938 0.10165-1.6406 0.15246-5.9271 14.824-11.854 29.648-17.806 44.534 4.7166 1.3878 7.6525 0.64362 8.3618-3.9936 0.58905-3.852 2.7297-5.3017 6.5731-4.7659 1.9596 0.27319 4.0181 0.26651 5.9801 0.002075 3.9307-0.52978 6.3561 0.63062 6.9374 4.8774 0.70026 5.1157 3.878 5.1807 8.0853 3.7677-1.6635-4.5293-3.2059-8.7286-5.0478-13.648m-101.2 4.1008c2.3055 6.6351 6.7793 10.845 13.951 10.758 4.0797-0.049561 8.1431-1.453 13.13-2.4255-1.699-2.5335-2.48-3.698-3.2207-4.8026-11.087 4.7104-18.442 1.0678-17.602-8.8536h22.135c1.7142-7.019-0.27814-12.475-5.4061-15.541-5.3939-3.2248-13.112-2.673-17.775 1.4114-5.7602 5.046-6.7673 11.531-5.2128 19.454m295.33-11.138c-0.86914-6.1497-4.3561-9.9303-10.385-11.304-7.5093-1.7105-14.239 1.4165-17.598 8.0895-3.691 7.3307-1.9362 17.217 3.903 21.989 5.6176 4.5909 14.338 4.468 21.086-0.49106-0.69141-1.2007-1.4013-2.4336-2.0891-3.6282-11.378 4.6534-18.064 1.4948-18.051-8.8773h22.945c0.11932-2.0583 0.20404-3.5198 0.18854-5.7784m-127.25 14.794c-1.5806 1.1266-3.1611 2.2531-4.7416 3.3797 0.22528 0.7554 0.45062 1.5108 0.6759 2.2662 3.9702 0.55948 7.9493 1.6324 11.909 1.5634 6.6562-0.11624 11.629-4.3867 12.68-9.9828 1.1326-6.0332-1.5451-11.179-7.4971-14.351-2.7854-1.4844-6.1225-2.4102-8.2207-4.556-1.6628-1.7006-2.9936-5.2787-2.3055-7.2775 0.65521-1.9036 3.9922-3.6035 6.3776-3.9903 2.3961-0.38858 5.0729 0.95355 7.9131 1.6027 0.52386-1.5614 1.0345-3.0833 2.0392-6.0778-4.9803-0.3334-9.3853-1.3458-13.565-0.75705-8.4147 1.1853-12.722 10.455-7.991 17.543 2.0411 3.058 5.9249 5.137 9.3414 6.9727 6.6304 3.5627 9.0543 6.8975 7.2239 11.184-1.7806 4.1703-6.1168 5.0935-13.839 2.481m-105.6-14.776h9.5206v-5.3743h-14.867v-12.102h20.504v-5.1804h-26.859v43.732h5.9498v-20.771c1.9047-0.12076 3.3511-0.21246 5.7515-0.30441m131.44 0.51831c2.2122 5.7432 4.5705 11.435 6.5981 17.243 2.314 6.6285 0.93634 8.9985-5.827 10.946-0.59247 0.17065-1.1527 0.45349-1.9509 0.77362 0.16907 1.5862 0.31702 2.9738 0.46039 4.3191 7.2507-0.09079 10.915-2.5864 13.23-8.8943 3.2091-8.7452 6.3522-17.515 9.5026-26.281 1.0931-3.042 2.124-6.1064 3.2194-9.265-5.701-0.65024-5.707-0.65228-7.2881 3.9267-2.1743 6.2965-4.3386 12.597-6.9658 20.227-3.0195-7.925-5.6714-14.206-7.7779-20.664-1.3001-3.9862-3.4771-4.7443-7.4506-3.3202 1.3583 3.4918 2.6744 6.8749 4.2501 10.989m37.106 16.333c-3.1118-0.71695-6.2236-1.4339-9.5551-2.2015-0.52502 1.4793-1.0641 2.9986-2.0353 5.7348 4.5275 0.55045 8.5258 1.5187 12.488 1.3903 4.4557-0.14435 7.9629-2.4814 8.875-7.2872 0.88373-4.6567-1.0709-8.1111-5.1204-10.368-2.3162-1.2909-4.9716-2.0847-7.0369-3.6715-1.1973-0.91983-2.4011-3.2625-2.0085-4.4281 0.41486-1.2313 2.7284-2.5428 4.2029-2.5318 2.3218 0.017456 4.6356 1.112 7.2513 1.8328 0.39838-1.7125 0.75116-3.2288 1.227-5.2742-3.2247-0.67816-5.928-1.6253-8.6655-1.7372-4.5628-0.18649-8.6947 1.0945-10.383 5.9844-1.4529 4.2074 0.68066 8.2809 5.5275 11.007 2.0226 1.1378 4.2465 1.9594 6.1478 3.262 3.7538 2.572 3.6348 5.0443-0.9151 8.2879m21.988-15.383v-7.4982c3.1998-0.21622 5.8037-0.39218 8.7136-0.58881 0.66284-7.9136-6.6178-2.3604-8.5203-5.5587-0.16162-2.3936-0.33313-4.933-0.58649-8.6848-2.4759 1.9102-4.8287 2.8268-5.4401 4.414-0.85199 2.212 0.45837 5.3667-3.3814 6.0137-0.098755 0.016632 0.10785 3.7037 0.37109 3.7306 3.7923 0.3873 2.6961 3.1924 2.7435 5.2945 0.097534 4.3309-0.41034 8.7288 0.19305 12.977 0.41516 2.9231 1.7571 6.0716 3.6288 8.3405 2.3462 2.8438 11.496 2.8499 13.25 0.25043-0.2475-1.0541-0.56683-2.4143-0.87836-3.7413-8.4745 1.2626-10.062-0.13599-10.093-8.4902-0.006775-1.8332-9.77e-4 -3.6664-9.77e-4 -6.4584z" fill="#323639"/>
<path d="m391.91 197.16c-7.444-21.786-14.773-43.199-22.101-64.612-0.332-0.016113-0.664-0.032211-0.996-0.048309-7.9009 43.754-15.802 87.507-23.734 131.43h-27.079c12.974-69.515 25.887-138.7 38.744-207.6 0.63577-0.28439 0.78332-0.39841 0.94064-0.41392 11.878-1.1717 11.882-1.1722 15.506 9.9407 14.876 45.608 29.749 91.217 44.627 136.82 0.3501 1.0731 0.75845 2.1272 1.4922 4.1734 0.81659-2.3312 1.3741-3.7441 1.8102-5.1935 14.012-46.577 28.091-93.134 41.893-139.77 1.4255-4.8173 3.3022-7.1606 8.4628-6.2464 1.9185 0.33988 3.9477 0.054959 6.4385 0.054959 14.041 69.4 28.033 138.56 42.107 208.12h-27.069c-7.9251-42.873-15.871-85.86-23.818-128.85-0.4714-0.11757-0.94284-0.23512-1.4143-0.35268-0.82486 1.7188-1.8476 3.3716-2.4456 5.166-13.64 40.929-27.25 81.867-40.795 122.83-0.90088 2.7242-1.6562 4.5588-5.2661 4.564-3.5102 0.005005-4.0968-1.9678-4.9194-4.3838-7.4089-21.76-14.843-43.511-22.385-65.637z" fill="#FCFCFC"/>
<path d="m1139.9 195.92c-16.754 31.16-39.548 55.767-72.175 72.333-3.7321-7.7592-7.3474-14.982-10.564-22.378-0.35669-0.81996 1.2764-2.9962 2.4697-3.9179 6.5751-5.0786 13.735-9.4789 19.889-15.008 15.761-14.163 22.162-33.002 24.142-53.367 1.1221-11.534 1.9039-23.399 0.479-34.821-2.9557-23.693-17.332-36.988-41.2-38.644-25.944-1.7995-46.934 7.4385-60.757 30.453-1.7955 2.9893-3.7488 5.9233-5.9535 8.6175-3.0071 3.6749-5.9973 3.8261-9.1703 0.20934-2.1581-2.4599-4.2236-5.3429-5.243-8.3994-3.9968-11.984-7.6321-24.092-11.181-36.218-0.36542-1.2483 0.29132-3.3542 1.2305-4.344 21.457-22.612 46.216-39.167 78.31-41.903 36.428-3.1061 68.036 6.3113 89.982 37.309 18.746 26.479 20.051 55.792 10.142 85.905-2.693 8.1839-6.786 15.907-10.399 24.173z" fill="#F27F45"/>
<path d="m955.24 257.8c0.73572 2.0837 1.3361 3.7885 2.2337 6.3374-10.391 0-20.266 0.098725-30.132-0.1658-0.90167-0.0242-2.0848-2.2596-2.5552-3.6632-4.0228-12.003-8.0064-24.022-11.773-36.107-0.94214-3.0232-2.2836-4.1241-5.5596-4.1022-22.997 0.15399-45.995 0.15552-68.992-9.15e-4 -3.3127-0.022538-4.5682 1.1844-5.558 4.1534-4.0036 12.008-8.3785 23.893-12.384 35.9-0.99579 2.9852-2.2991 4.2017-5.5933 4.1118-8.9742-0.24475-17.959-0.084137-27.666-0.084137 0.81842-2.2078 1.398-3.8842 2.0557-5.5294 26.836-67.129 53.692-134.25 80.477-201.4 1.1406-2.8594 2.2029-4.5958 5.882-4.6132 3.764-0.017833 4.3215 2.1872 5.2565 4.7104 24.714 66.695 49.445 133.38 74.309 200.45m-111.28-64.364c-0.56091 1.712-1.1218 3.4241-1.7444 5.3246h61.157c-9.7334-30.214-19.303-59.919-29.313-90.994-10.331 29.381-20.096 57.153-30.1 85.67z" fill="#FCFCFC"/>
<path d="m686.09 183v-127.01h128.42v25.253h-99.594v57.848h72.497v24.362h-72.819v100.51h-28.508v-80.965z" fill="#FBFBFB"/>
<path d="m526.47 120.53c-1.1111-2.986-2.0607-5.6069-3.2181-8.8013 8.9415 0 17.245-0.16928 25.526 0.18468 1.2253 0.052376 2.8306 2.3913 3.4418 3.986 12.037 31.403 23.95 62.854 35.898 94.292 2.2847 6.0117 4.6102 12.008 7.3143 19.045 7.0658-20.678 13.745-40.198 20.406-59.725 6.0734-17.806 12.198-35.594 18.119-53.451 1.0359-3.1243 2.2644-4.5888 5.8647-4.4295 7.464 0.33023 14.953 0.099648 23.209 0.099648-0.68738 2.0916-1.1801 3.7313-1.7614 5.3391-19.982 55.272-40.457 110.37-59.716 165.9-7.3628 21.227-21.911 32.677-42.318 38.339-6.3057 1.7495-12.979 2.1743-19.926 3.2757v-24.628c2.5842-0.27036 5.2772-0.23004 7.7913-0.88077 5.6078-1.4516 11.451-2.5686 16.618-5.036 13.619-6.5032 18.114-14.998 15.671-29.89-1.2292-7.4962-3.3147-14.98-6.0215-22.085-15.411-40.453-31.126-80.79-46.9-121.53z" fill="#FCFCFC"/>
<path d="m227.61 301.54c-0.75439-1.6758-1.3605-3.2315-1.3626-4.788-0.052917-39.118 0.020142-78.237-0.13364-117.36-0.016465-4.1877 1.1892-5.6241 5.3295-5.2547 3.6333 0.32413 7.3232 0.18597 10.979 0.033005 3.3349-0.13956 6.1868 0.035202 5.3692 5.6522 10.396-8.6262 21.592-8.1216 32.89-5.7954 13.96 2.874 23.053 11.442 27.208 25.008 3.574 11.67 4.106 23.615 1.5844 35.552-5.3275 25.219-30.611 39.021-56.553 31.037-1.4152-0.43555-2.8013-0.96576-5.2024-1.7998 0 2.7439 3.1e-5 4.9497 0 7.1554-1.37e-4 8.8225-0.11189 17.647 0.058151 26.466 0.062195 3.2259-0.94559 4.4784-4.2608 4.3292-5.1502-0.23187-10.317-0.098419-15.906-0.23947m20.105-85.038c5.03e-4 8.1484-0.14639 16.302 0.11377 24.442 0.05893 1.8435 1.0259 4.3757 2.4332 5.3461 12.375 8.533 33.64 0.80162 36.642-13.849 1.5333-7.4821 1.6378-15.639 0.4975-23.207-2.3002-15.264-21.402-23.6-35.034-16.074-3.1783 1.7545-5.0146 3.9093-4.7322 7.8812 0.34111 4.7982 0.079651 9.6393 0.0793 15.461z" fill="#EF7E45"/>
<path d="m32.665 174.73c6.8343-0.28033 13.304-0.28033 20.014-0.28033 0.36673 1.4686 0.71119 2.8481 1.0493 4.2021 0.35831 0.066025 0.75229 0.27428 0.94861 0.15556 25.639-15.501 55.482-2.2597 60.45 27.342 1.4103 8.4027 1.5708 17.355 0.39166 25.787-3.2192 23.022-20.569 36.388-44.933 35.382-5.5547-0.22928-11.061-1.6287-17.17-2.58v36.633h-21.103c-0.11432-1.2953-0.29835-2.4103-0.29877-3.5253-0.015047-39.792-0.015438-79.584-6.22e-4 -119.38 4.31e-4 -1.1535 0.18714-2.3069 0.65155-3.7407m58.585 27.757c-6.0554-10.86-23.728-15.526-33.966-8.7044-1.7972 1.1976-3.7639 3.7443-3.8093 5.7104-0.3257 14.127-0.2485 28.266-0.069019 42.398 0.018993 1.4957 1.1502 3.524 2.3991 4.3728 12.704 8.6343 33.615 0.76395 37.091-14.076 2.272-9.6999 2.0992-19.467-1.6462-29.701z" fill="#F17F45"/>
<path d="m188.87 234c-0.003479-8.498 0.086029-16.497-0.034775-24.494-0.13467-8.913-4.5041-15.112-12.147-17.608-8.0237-2.62-19.291 0.40906-23.639 6.6922-1.0178 1.471-1.2425 3.7262-1.2514 5.6234-0.088059 18.828-0.1445 37.658 0.021072 56.485 0.033539 3.8153-0.87535 5.4117-4.9874 5.1534-5.4304-0.3411-10.898-0.083954-16.696-0.083954-0.10117-2.2284-0.23836-3.8478-0.23886-5.4673-0.012024-38.324 0.053848-76.648-0.10452-114.97-0.016311-3.9443 1.1506-5.6199 4.9986-6.2766 5.364-0.91536 10.637-2.3652 16.809-3.7841v44.482c8.9515-6.6704 18.093-7.5494 27.545-6.9 16.672 1.1455 29.189 11.249 30.236 27.802 1.352 21.376 0.3295 42.901 0.3295 64.74h-20.841c0-10.378 0-20.636-1.98e-4 -31.394z" fill="#F07E45"/>
<path d="m1004.3 218.67c10.052 15.035 23.562 25.688 38.449 34.879 2.4313 1.501 4.2872 3.934 6.4092 5.9363-0.35132 0.75534-0.70264 1.5107-1.0538 2.2661-7.4884-0.76254-15.109-0.88464-22.443-2.3969-34.298-7.0724-58.713-33.618-65.204-70.699-3.5963-20.546-1.6655-40.832 3.8931-60.838 0.17059-0.61397 0.53088-1.1753 1.0875-2.3751 6.6923 8.8056 12.748 17.553 19.63 25.593 5.9034 6.8968 8.6541 13.65 7.4721 23.249-1.95 15.835 2.8754 30.648 11.759 44.386z" fill="#FCFCFC"/>
<path d="m1079.3 283.74c5.4513-18.314 23.529-29.157 40.775-24.818 14.023 3.528 21.423 16.578 17.262 30.444-5.0273 16.753-24.739 27.373-41.455 22.336-12.183-3.6718-18.208-13.623-16.582-27.962z" fill="#F17F45"/>
<path d="m851.15 332.42c-1.2045 0.97372-2.3797 2.115-3.5003 2.0637-6.2795-0.28744-12.129-1.7102-16.601-6.7533-0.88049-0.99283-2.8512-1.4545-4.3067-1.4298-8.2522 0.14008-13.59-3.9883-16.478-11.326-3.1017-7.8821-3.1937-15.962 0.1095-23.84 3.2438-7.7357 9.2603-11.395 17.261-10.9 7.9851 0.49387 14.029 4.8504 16.031 12.702 2.8795 11.295 2.518 22.158-7.0836 31.032 2.663 4.3199 6.9938 4.5225 11.273 4.5259 2.6096 0.002045 4.3608 0.33606 3.2953 3.9243m-26.978-12.018c6.7623 0.30582 10.514-1.6997 12.636-7.3384 2.4829-6.5993 2.5156-13.385 0.13483-20.023-1.7794-4.9612-5.6719-7.1357-10.864-7.1588-5.0064-0.022308-8.1917 2.6667-9.7676 7.1019-2.4804 6.9812-2.6388 14.169 0.64856 20.859 1.2632 2.5706 4.2641 4.2874 7.2126 6.5598z" fill="#CACBCD"/>
<path d="m1032 297.38c-4.9971 0.55478-7.0292 2.9892-6.8424 7.7388 0.25452 6.4767 0.063476 12.971 0.063476 19.875h-5.9849c0-6.7707 0.023376-13.534-0.007507-20.297-0.023377-5.1167-1.8734-7.3407-5.9821-7.3228-3.9913 0.017334-6.7247 2.9999-6.7579 7.5343-0.048645 6.6303-0.012512 13.261-0.012512 20.271-1.9745 0.08725-3.5587 0.15726-5.5004 0.24307v-33.145c2.2494 1.1642 3.9072 2.0223 5.8701 3.0382 7.1232-4.1958 10.628-4.2013 17.348 0.45721 1.2861-0.74768 2.6161-1.6805 4.0699-2.3394 7.8521-3.5585 15.231 0.75449 15.627 9.3326 0.28369 6.1491 0.079956 12.321 0.072876 18.483-0.001221 1.1525-0.10144 2.3048-0.17249 3.8065h-5.7635c0-6.8124 0.024047-13.431-0.009156-20.05-0.019409-3.8559-1.2152-6.9119-6.0182-7.6253z" fill="#CBCDCF"/>
<path d="m695.65 299.61c0.13318 8.6337 0.13318 16.895 0.13318 25.576-1.3174 0.073547-2.8976 0.16177-5.2648 0.29394 0-7.0724 0.33899-13.838-0.18018-20.538-0.18677-2.4099-1.9167-5.6069-3.903-6.7008-1.7769-0.97861-5.201-0.14462-7.2765 1.0088-1.4008 0.77847-2.3344 3.4736-2.4153 5.3571-0.28467 6.6286-0.11066 13.277-0.11066 20.503-1.893 0.11517-3.6108 0.2197-5.7017 0.34692v-45.554c1.5629-0.080963 3.2736-0.16956 5.5915-0.28961v15.206c11.168-4.0615 15.033-3.089 19.127 4.7908z" fill="#CBCCCE"/>
<path d="m802.45 311.45c1.6921 4.5593 3.2345 8.7585 4.898 13.288-4.2073 1.413-7.385 1.348-8.0853-3.7677-0.5813-4.2468-3.0068-5.4072-6.9374-4.8774-1.962 0.26444-4.0205 0.27112-5.9801-0.002075-3.8434-0.53577-5.984 0.91394-6.5731 4.7659-0.70923 4.6372-3.6452 5.3814-8.3618 3.9936 5.9518-14.886 11.879-29.71 17.806-44.534 0.54688-0.050811 1.0938-0.10162 1.6406-0.15246 3.8144 10.309 7.6288 20.617 11.593 31.286m-13.61-16.496c-1.8793 5.38-3.7587 10.76-5.6703 16.233h12.642c-1.7664-5.5813-3.3279-10.647-5.0203-15.668-0.1795-0.53278-1.1268-0.80682-1.9511-0.56424z" fill="#CBCCCE"/>
<path d="m701.01 314.8c-1.4688-7.532-0.46161-14.017 5.2986-19.063 4.6626-4.0844 12.381-4.6362 17.775-1.4114 5.1279 3.0659 7.1203 8.5222 5.4061 15.541h-22.135c-0.83984 9.9214 6.5158 13.564 17.602 8.8536 0.74072 1.1046 1.5217 2.2691 3.2207 4.8026-4.9874 0.97253-9.0508 2.376-13.13 2.4255-7.1716 0.087158-11.645-4.1225-14.037-11.149m13.045-17.257c-3.7991 1.0304-6.4744 3.0743-6.8722 7.4831h16.823c-0.90259-5.8784-2.6402-7.2521-9.9506-7.4831z" fill="#C7C9CB"/>
<path d="m996.48 304.45c-0.034607 1.86-0.11932 3.3215-0.23865 5.3798h-22.945c-0.013305 10.372 6.6725 13.531 18.051 8.8773 0.6878 1.1946 1.3977 2.4275 2.0891 3.6282-6.7479 4.959-15.469 5.082-21.086 0.49106-5.8392-4.772-7.5939-14.658-3.903-21.989 3.3597-6.6729 10.089-9.8 17.598-8.0895 6.0289 1.3733 9.5158 5.1539 10.435 11.702m-12.033 0.99338h5.7803c-0.79163-5.7073-3.5134-8.1834-8.1619-8.1407-4.6306 0.042572-7.706 2.8439-8.4789 8.1413 3.3425 0 6.6205 0 10.861-6.1e-4z" fill="#C8C9CB"/>
<path d="m869.54 319c7.3566 2.4576 11.693 1.5344 13.473-2.6359 1.8303-4.2866-0.59357-7.6214-7.2239-11.184-3.4164-1.8357-7.3002-3.9146-9.3414-6.9727-4.731-7.0877-0.42364-16.357 7.991-17.543 4.1794-0.58872 8.5844 0.42364 13.565 0.75705-1.0048 2.9946-1.5154 4.5165-2.0392 6.0778-2.8403-0.64911-5.517-1.9912-7.9131-1.6027-2.3854 0.38687-5.7224 2.0867-6.3776 3.9903-0.68805 1.9988 0.6427 5.5769 2.3055 7.2775 2.0982 2.1458 5.4353 3.0716 8.2207 4.556 5.952 3.1722 8.6297 8.3177 7.4971 14.351-1.0506 5.5961-6.0234 9.8666-12.68 9.9828-3.9592 0.069061-7.9384-1.0039-11.909-1.5634-0.22528-0.7554-0.45062-1.5108-0.6759-2.2662 1.5805-1.1266 3.1611-2.2532 5.1068-3.2249z" fill="#C9CACC"/>
<path d="m763.1 304.07c-1.9234 0.091797-3.3698 0.1835-5.2745 0.30426v20.771h-5.9498v-43.732h26.859v5.1804h-20.504v12.102h14.867v5.3743c-3.3078 0-6.4142 0-9.9976 1.53e-4z" fill="#CBCCCE"/>
<path d="m894.89 304.22c-1.4459-3.7488-2.762-7.132-4.1203-10.624 3.9735-1.4241 6.1505-0.66605 7.4506 3.3202 2.1064 6.4586 4.7584 12.739 7.7779 20.664 2.6271-7.6302 4.7914-13.93 6.9658-20.227 1.5812-4.579 1.5871-4.5769 7.2881-3.9267-1.0955 3.1585-2.1263 6.2229-3.2194 9.265-3.1504 8.7666-6.2935 17.536-9.5026 26.281-2.3146 6.3079-5.9791 8.8035-13.23 8.8943-0.14337-1.3452-0.29132-2.7329-0.46039-4.3191 0.79822-0.32013 1.3585-0.60297 1.9509-0.77362 6.7634-1.9478 8.1411-4.3178 5.827-10.946-2.0276-5.8077-4.3859-11.5-6.7278-17.609z" fill="#CACBCD"/>
<path d="m647.18 286.96h-13.822c-0.13727-2.1646-0.23566-3.7154-0.35626-5.6173h34.685c0.11481 1.4806 0.23444 3.0236 0.40631 5.2394h-14.766c0 9.3762-6.1e-5 18.134 6.1e-5 26.892 6.1e-5 2.8311-0.17444 5.6762 0.048645 8.4897 0.23846 3.0079-1.0202 3.9325-4.074 2.8065-0.2912-11.298-0.20569-21.999-0.36462-32.695-0.025391-1.7132-1.1444-3.4102-1.7579-5.1147z" fill="#C7C8CA"/>
<path d="m932.51 320.83c4.1684-3.157 4.2874-5.6294 0.53357-8.2014-1.9012-1.3027-4.1252-2.1243-6.1478-3.262-4.8468-2.7265-6.9803-6.8-5.5275-11.007 1.6885-4.8899 5.8204-6.1709 10.383-5.9844 2.7375 0.11185 5.4408 1.059 8.6655 1.7372-0.47583 2.0454-0.82861 3.5618-1.227 5.2742-2.6157-0.7208-4.9295-1.8153-7.2513-1.8328-1.4745-0.011078-3.788 1.3004-4.2029 2.5318-0.39258 1.1655 0.81128 3.5082 2.0085 4.4281 2.0654 1.5868 4.7207 2.3806 7.0369 3.6715 4.0495 2.257 6.0041 5.7114 5.1204 10.368-0.91211 4.8058-4.4193 7.1428-8.875 7.2872-3.9627 0.12845-7.961-0.83981-12.488-1.3903 0.97113-2.7363 1.5103-4.2555 2.0353-5.7348 3.3315 0.76758 6.4433 1.4846 9.9366 2.115z" fill="#C9CACC"/>
<path d="m954.12 306.02c0 2.3126-0.005798 4.1458 9.77e-4 5.979 0.031006 8.3542 1.618 9.7528 10.093 8.4902 0.31152 1.3269 0.63086 2.6872 0.87836 3.7413-1.754 2.5995-10.904 2.5934-13.25-0.25043-1.8718-2.2689-3.2137-5.4174-3.6288-8.3405-0.60339-4.2479-0.09552-8.6457-0.19305-12.977-0.047364-2.1021 1.0488-4.9072-2.7435-5.2945-0.26324-0.026886-0.46985-3.7139-0.37109-3.7306 3.8398-0.64703 2.5294-3.8017 3.3814-6.0137 0.61145-1.5873 2.9642-2.5038 5.4401-4.414 0.25336 3.7517 0.42487 6.2912 0.58649 8.6848 1.9025 3.1983 9.1832-2.3549 8.5203 5.5587-2.9099 0.19662-5.5138 0.37259-8.7136 0.58881v7.9776z" fill="#C8CACC"/>
<path d="m647.18 287.44c0.60834 1.2336 1.7274 2.9305 1.7527 4.6437 0.15894 10.697 0.073425 21.397 0.048645 32.573-0.61285-0.95389-1.7004-2.378-1.7192-3.8161-0.14307-10.975-0.077576-21.953-0.082215-33.401z" fill="#DDDEE0"/>
<path d="m844.07 193.06c9.8844-28.144 19.649-55.916 29.98-85.297 10.011 31.076 19.58 60.78 29.313 90.994h-61.157c0.62262-1.9005 1.1835-3.6126 1.8639-5.6968z" fill="#34383B"/>
<path d="m247.72 216c5.04e-4 -5.3224 0.26196-10.163-0.079147-14.962-0.28235-3.9718 1.5539-6.1266 4.7322-7.8812 13.632-7.5253 32.734 0.81027 35.034 16.074 1.1403 7.5672 1.0358 15.725-0.4975 23.207-3.0025 14.651-24.268 22.382-36.642 13.849-1.4073-0.97043-2.3743-3.5026-2.4332-5.3461-0.26016-8.1401-0.11327-16.293-0.11392-24.941z" fill="#333638"/>
<path d="m91.41 202.83c3.5855 9.8808 3.7584 19.648 1.4864 29.348-3.476 14.84-24.388 22.71-37.091 14.076-1.2489-0.84886-2.3802-2.8772-2.3991-4.3728-0.17948-14.132-0.25668-28.271 0.069019-42.398 0.04533-1.9662 2.0121-4.5129 3.8093-5.7104 10.238-6.8219 27.911-2.1555 34.126 9.0572z" fill="#353638"/>
<path d="m823.8 320.32c-2.5789-2.1891-5.5798-3.9058-6.843-6.4765-3.2874-6.6901-3.129-13.878-0.64856-20.859 1.5759-4.4352 4.7612-7.1242 9.7676-7.1019 5.1921 0.023163 9.0847 2.1976 10.864 7.1588 2.3807 6.6379 2.3481 13.424-0.13483 20.023-2.1215 5.6387-5.8733 7.6443-13.005 7.2551z" fill="#35393C"/>
<path d="m788.95 294.63c0.7077 0.075745 1.655 0.34979 1.8345 0.88257 1.6924 5.0215 3.2538 10.087 5.0203 15.668h-12.642c1.9116-5.4724 3.791-10.853 5.7869-16.551z" fill="#404447"/>
<path d="m714.43 297.46c6.9393 0.30716 8.6769 1.6808 9.5795 7.5592h-16.823c0.39783-4.4087 3.0731-6.4527 7.2433-7.5592z" fill="#393D3F"/>
<path d="m983.97 305.44c-3.759 3.05e-4 -7.037 3.05e-4 -10.38 3.05e-4 0.77295-5.2974 3.8484-8.0987 8.4789-8.1413 4.6485-0.042755 7.3702 2.4334 8.1619 8.1407-1.9941 0-3.8872 0-6.2613 3.05e-4z" fill="#3B3F42"/>
</svg>
